<?xml version="1.0"?>
<svg xmlns="http://www.w3.org/2000/svg" xmlns:xlink="http://www.w3.org/1999/xlink" version="1.1" id="Capa_1" x="0px" y="0px" viewBox="0 0 480 480" style="enable-background:new 0 0 480 480;" xml:space="preserve" width="512px" height="512px"><g><g>
	<path d="M472,80H8c-4.418,0-8-3.582-8-8s3.582-8,8-8h464c4.418,0,8,3.582,8,8S476.418,80,472,80z" data-original="#2B3990" class="active-path" data-old_color="##FD484" fill="#F60005"/>
	<path d="M472,192H8c-4.418,0-8-3.582-8-8s3.582-8,8-8h464c4.418,0,8,3.582,8,8S476.418,192,472,192z" data-original="#2B3990" class="active-path" data-old_color="##FD484" fill="#F60005"/>
	<path d="M472,304H8c-4.418,0-8-3.582-8-8s3.582-8,8-8h464c4.418,0,8,3.582,8,8S476.418,304,472,304z" data-original="#2B3990" class="active-path" data-old_color="##FD484" fill="#F60005"/>
	<path d="M472,416H8c-4.418,0-8-3.582-8-8s3.582-8,8-8h464c4.418,0,8,3.582,8,8S476.418,416,472,416z" data-original="#2B3990" class="active-path" data-old_color="##FD484" fill="#F60005"/>
</g></g> </svg>
